M48
; DRILL file {KiCad 8.0.3} date 2024-07-22T10:46:43+0700
; FORMAT={3:3/ absolute / metric / suppress leading zeros}
; #@! TF.CreationDate,2024-07-22T10:46:43+07:00
; #@! TF.GenerationSoftware,Kicad,Pcbnew,8.0.3
; #@! TF.FileFunction,MixedPlating,1,2
FMAT,2
METRIC,TZ
; #@! TA.AperFunction,Plated,PTH,ComponentDrill
T1C0.500
; #@! TA.AperFunction,Plated,PTH,ViaDrill
T2C0.609
; #@! TA.AperFunction,Plated,PTH,ComponentDrill
T3C0.750
; #@! TA.AperFunction,Plated,PTH,ComponentDrill
T4C0.800
; #@! TA.AperFunction,Plated,PTH,ComponentDrill
T5C0.900
; #@! TA.AperFunction,Plated,PTH,ComponentDrill
T6C1.000
; #@! TA.AperFunction,Plated,PTH,ComponentDrill
T7C1.020
; #@! TA.AperFunction,Plated,PTH,ComponentDrill
T8C1.100
; #@! TA.AperFunction,Plated,PTH,ComponentDrill
T9C1.300
; #@! TA.AperFunction,Plated,PTH,ComponentDrill
T10C3.200
; #@! TA.AperFunction,NonPlated,NPTH,ComponentDrill
T11C3.000
%
G90
G05
T1
X76600Y-53000
X76600Y-115000
X77303Y-51303
X77303Y-54697
X77303Y-113303
X77303Y-116697
X79000Y-50600
X79000Y-55400
X79000Y-112600
X79000Y-117400
X80697Y-51303
X80697Y-54697
X80697Y-113303
X80697Y-116697
X81400Y-53000
X81400Y-115000
X133100Y-53000
X133100Y-115000
X133803Y-51303
X133803Y-54697
X133803Y-113303
X133803Y-116697
X135500Y-50600
X135500Y-55400
X135500Y-112600
X135500Y-117400
X137197Y-51303
X137197Y-54697
X137197Y-113303
X137197Y-116697
X137900Y-53000
X137900Y-115000
X141600Y-53000
X141600Y-125000
X142303Y-51303
X142303Y-54697
X142303Y-123303
X142303Y-126697
X144000Y-50600
X144000Y-55400
X144000Y-122600
X144000Y-127400
X145697Y-51303
X145697Y-54697
X145697Y-123303
X145697Y-126697
X146400Y-53000
X146400Y-125000
X233600Y-53000
X233653Y-125000
X234303Y-51303
X234303Y-54697
X234356Y-123303
X234356Y-126697
X236000Y-50600
X236000Y-55400
X236053Y-122600
X236053Y-127400
X237697Y-51303
X237697Y-54697
X237750Y-123303
X237750Y-126697
X238400Y-53000
X238453Y-125000
T2
X85660Y-61760
X87305Y-52477
X87305Y-57557
X87305Y-67717
X87305Y-93117
X87305Y-103277
X89230Y-86890
X92385Y-52477
X92385Y-57557
X92385Y-62637
X92385Y-67717
X92385Y-103277
X94360Y-81920
X97465Y-52477
X97465Y-57557
X97465Y-62637
X97465Y-67717
X98100Y-85830
X98230Y-93030
X99630Y-84210
X100330Y-95620
X100900Y-75030
X102545Y-52477
X102545Y-57557
X104410Y-98000
X105590Y-99720
X106760Y-110440
X107625Y-52477
X107625Y-57557
X107625Y-62637
X112705Y-52477
X112705Y-57557
X112705Y-62637
X112705Y-67717
X112705Y-72797
X112705Y-77877
X115435Y-88785
X117785Y-52477
X117785Y-57557
X117785Y-62637
X117785Y-67717
X117785Y-72797
X121400Y-81500
X122865Y-52477
X122865Y-57557
X122865Y-62637
X122865Y-67717
X127945Y-52477
X127945Y-57557
X127945Y-98197
X133025Y-57557
X133025Y-62637
X133025Y-72797
X133940Y-87910
X135240Y-91700
X143185Y-57557
X143185Y-62637
X143185Y-67717
X143185Y-72797
X143185Y-77877
X143185Y-82957
X143185Y-88037
X143185Y-93117
X143185Y-98197
X143185Y-103277
X143185Y-108357
X143185Y-113437
X143185Y-118517
X148265Y-57557
X148265Y-108357
X148265Y-113437
X153345Y-52477
X153345Y-57557
X153345Y-77877
X153345Y-93117
X153345Y-108357
X153345Y-113437
X158425Y-57557
X158425Y-77877
X158425Y-93117
X158425Y-113437
X160180Y-107280
X163310Y-62750
X163505Y-57557
X168585Y-62637
X168585Y-67717
X168585Y-72797
X168585Y-88037
X168585Y-93117
X168910Y-98160
X170860Y-79280
X173665Y-67717
X173665Y-72797
X175120Y-83450
X177400Y-81630
X178000Y-102260
X178745Y-67717
X178745Y-72797
X181070Y-96250
X183330Y-107020
X183825Y-52477
X183825Y-57557
X183825Y-72797
X185100Y-89337
X188180Y-65170
X188905Y-52477
X188905Y-57557
X188905Y-67717
X190080Y-115450
X191650Y-72880
X191690Y-102150
X197350Y-109720
X199065Y-57557
X199065Y-62637
X199065Y-67717
X201800Y-71670
X202080Y-84300
X203530Y-80110
X204145Y-57557
X204145Y-62637
X204145Y-67717
X205840Y-73500
X209225Y-57557
X209225Y-62637
X209225Y-67717
X214305Y-62637
X214305Y-67717
X214305Y-88037
X214305Y-93117
X214305Y-98197
X214305Y-108357
X214305Y-113437
X219385Y-108357
X219385Y-113437
X224465Y-52477
X229545Y-52477
T3
X184260Y-69080
X185530Y-70350
X186800Y-69080
T4
X94000Y-84340
X94000Y-94500
X179950Y-75138
X179950Y-79330
X180280Y-63330
X190110Y-75138
X190110Y-79330
X190440Y-63330
T5
X92460Y-100420
X95000Y-100420
X173460Y-63080
X176000Y-63080
T6
X85260Y-91600
X85260Y-94140
X85260Y-96680
X85260Y-99220
X85375Y-75669
X85375Y-78209
X87915Y-75669
X87915Y-78209
X90380Y-108420
X90455Y-75669
X90455Y-78209
X92920Y-108420
X92995Y-75669
X92995Y-78209
X95460Y-108420
X98000Y-108420
X109300Y-107420
X109300Y-109960
X111840Y-107420
X111840Y-109960
X114380Y-107420
X114380Y-109960
X116920Y-107420
X116920Y-109960
X119460Y-107420
X119460Y-109960
X122000Y-107420
X122000Y-109960
X146580Y-81550
X146580Y-84090
X146580Y-86630
X146580Y-89170
X169990Y-109210
X169990Y-111750
X169990Y-114290
X169990Y-116830
X172530Y-109210
X172530Y-111750
X172530Y-114290
X172530Y-116830
X176950Y-125580
X178530Y-107250
X178530Y-109790
X178530Y-112330
X178530Y-114870
X179430Y-94080
X179490Y-125580
X182030Y-125580
X184570Y-125580
X187030Y-94080
X192960Y-125580
X195500Y-125580
X198040Y-125580
X200580Y-125580
X207500Y-125580
X210040Y-125580
X212580Y-125580
X215120Y-125580
X221320Y-106170
X221320Y-111250
X221320Y-116330
X232480Y-59600
X232480Y-62140
X232480Y-64680
X232480Y-69800
X232480Y-72340
X232480Y-74880
X232480Y-77420
T7
X103600Y-60100
X103600Y-62640
X103600Y-65180
X103600Y-67720
X103600Y-70260
X103600Y-72800
X103600Y-75340
X103600Y-77880
X103600Y-80420
X103600Y-82960
X103600Y-85500
X103600Y-88040
X103600Y-90580
X103600Y-93120
X103600Y-95660
X129000Y-60100
X129000Y-62640
X129000Y-65180
X129000Y-67720
X129000Y-70260
X129000Y-72800
X129000Y-75340
X129000Y-77880
X129000Y-80420
X129000Y-82960
X129000Y-85500
X129000Y-88040
X129000Y-90580
X129000Y-93120
X129000Y-95660
X195600Y-60090
X195600Y-62630
X195600Y-65170
X195600Y-67710
X195600Y-70250
X195600Y-72790
X195600Y-75330
X195600Y-77870
X195600Y-80410
X195600Y-82950
X195600Y-85490
X195600Y-88030
X195600Y-90570
X195600Y-93110
X195600Y-95650
X221000Y-60090
X221000Y-62630
X221000Y-65170
X221000Y-67710
X221000Y-70250
X221000Y-72790
X221000Y-75330
X221000Y-77870
X221000Y-80410
X221000Y-82950
X221000Y-85490
X221000Y-88030
X221000Y-90570
X221000Y-93110
X221000Y-95650
T8
X179950Y-83622
X190110Y-83622
T9
X232980Y-85920
X232980Y-90920
X232980Y-95920
X232980Y-100920
X232980Y-105920
X232980Y-110920
X232980Y-115920
T10
X79000Y-53000
X79000Y-115000
X135500Y-53000
X135500Y-115000
X144000Y-53000
X144000Y-125000
X236000Y-53000
X236053Y-125000
T11
X196020Y-52130
X196020Y-99080
X220530Y-52130
X220530Y-99080
M30
